<svg xmlns="http://www.w3.org/2000/svg" viewBox="0 0 512.019 512.019">
	<g>
		<path d="M392.837,344.957c3.907-1.377,5.957-5.661,4.579-9.567c-1.378-3.907-5.665-5.955-9.567-4.578   c-21.421,7.553-44.037-8.387-44.037-31.17c0-18.219,14.822-33.042,33.041-33.042c22.715,0,38.748,22.553,31.171,44.037   c-1.379,3.906,0.67,8.19,4.576,9.568c3.909,1.376,8.19-0.671,9.568-4.577c10.994-31.144-12.194-64.028-45.315-64.028   c-26.49,0-48.041,21.551-48.041,48.042C328.812,332.668,361.601,355.976,392.837,344.957z" />

		<path d="M491.746,64.58H20.254C9.086,64.58,0,73.666,0,84.834v309.7c0,11.168,9.086,20.254,20.254,20.254h314.698v25.124   c0,5.764,6.244,9.351,11.213,6.516l31.104-17.724l30.194,17.68c4.992,2.92,11.29-0.681,11.29-6.472v-25.124h72.992   c11.168,0,20.254-9.086,20.254-20.254v-309.7C512,73.666,502.914,64.58,491.746,64.58z M317.627,288.411   c-0.867-3.261-1.764-6.633-1.189-8.401c0.633-1.95,3.418-4.195,6.111-6.366c7.519-6.06,9.329-8.496,12.858-17.687   c1.231-3.208,2.506-6.526,4.118-7.7c1.572-1.144,5.101-1.335,8.513-1.521c10.102-0.548,12.924-1.62,20.73-6.72   c2.92-1.908,5.94-3.881,8.084-3.881c2.145,0,5.165,1.973,8.086,3.881c7.89,5.156,10.729,6.177,20.729,6.72   c3.412,0.186,6.94,0.377,8.513,1.521c1.613,1.174,2.887,4.492,4.119,7.701c3.521,9.176,5.328,11.619,12.857,17.687   c2.693,2.171,5.479,4.417,6.111,6.365c0.574,1.769-0.322,5.141-1.189,8.402c-2.565,9.646-2.559,12.834,0,22.459   c0.867,3.261,1.764,6.633,1.188,8.403c-0.633,1.949-3.418,4.194-6.111,6.366c-7.504,6.051-9.321,8.479-12.857,17.687   c-2.863,7.459-3.56,8.254-7.797,8.836c-0.531,0.053-0.864,0.169-4.833,0.385c-10.039,0.544-12.866,1.582-20.729,6.72   c-2.921,1.908-5.941,3.881-8.086,3.881c-2.144,0-5.164-1.973-8.084-3.881c-7.825-5.112-10.647-6.174-20.73-6.72   c-9.288-0.506-9.375-0.739-12.631-9.221c-3.537-9.211-5.359-11.642-12.859-17.688c-2.693-2.171-5.478-4.417-6.11-6.365   c-0.575-1.769,0.322-5.141,1.189-8.401C320.191,301.226,320.186,298.037,317.627,288.411z M403.754,426.829l-22.644-13.258   c-2.313-1.354-5.173-1.372-7.503-0.044l-23.655,13.479v-59.314c4.725,0.361,5.659,0.897,10.612,4.132   c4.312,2.817,9.679,6.324,16.288,6.324c6.61,0,11.978-3.506,16.29-6.324c4.95-3.235,5.911-3.774,10.611-4.132V426.829z    M497,394.534c0,2.897-2.356,5.254-5.254,5.254h-72.992v-15h23.851c4.143,0,7.5-3.358,7.5-7.5   c0-13.452,10.943-24.396,24.396-24.396c4.143,0,7.5-3.358,7.5-7.5V133.975c0-4.142-3.357-7.5-7.5-7.5   c-13.452,0-24.396-10.944-24.396-24.396c0-4.142-3.357-7.5-7.5-7.5H69.396c-4.143,0-7.5,3.358-7.5,7.5   c0,13.452-10.943,24.396-24.396,24.396c-4.143,0-7.5,3.358-7.5,7.5v211.417c0,4.142,3.357,7.5,7.5,7.5   c13.452,0,24.396,10.944,24.396,24.396c0,4.142,3.357,7.5,7.5,7.5h141.722c4.143,0,7.5-3.358,7.5-7.5s-3.357-7.5-7.5-7.5H76.18   c-3.043-15.719-15.461-28.137-31.18-31.179v-197.85c15.719-3.042,28.137-15.46,31.18-31.179H435.82   c3.043,15.719,15.461,28.137,31.18,31.179v197.85c-15.719,3.042-28.137,15.46-31.18,31.179h-17.066v-4.31   c7.82-3.088,10.746-9.475,13.549-16.775c2.537-6.612,2.806-6.981,8.268-11.386c3.989-3.216,8.954-7.218,10.965-13.412   c1.941-5.979,0.399-11.775-0.96-16.889c-1.873-7.048-1.873-7.702,0-14.75c1.36-5.114,2.901-10.909,0.961-16.889   c-2.012-6.194-6.976-10.195-10.965-13.411c-5.446-4.391-5.725-4.764-8.269-11.386c-1.92-5-4.096-10.667-9.296-14.452   c-5.157-3.754-11.197-4.082-16.525-4.371c-7.187-0.39-7.603-0.551-13.339-4.3c-4.313-2.817-9.68-6.324-16.29-6.324   c-6.609,0-11.977,3.506-16.288,6.324c-5.686,3.713-6.108,3.907-13.34,4.299c-5.328,0.29-11.368,0.617-16.525,4.371   c-5.199,3.784-7.376,9.451-9.296,14.451c-2.543,6.628-2.835,7.007-8.269,11.386c-3.988,3.216-8.953,7.218-10.965,13.413   c-1.94,5.978-0.399,11.774,0.961,16.888c1.873,7.047,1.874,7.702,0,14.75c-1.36,5.114-2.902,10.911-0.961,16.89   c2.012,6.193,6.976,10.195,10.964,13.41c5.436,4.382,5.728,4.765,8.27,11.388c2.844,7.407,5.772,13.704,13.549,16.775v4.31h-88.835   c-4.143,0-7.5,3.358-7.5,7.5s3.357,7.5,7.5,7.5h88.835v15H20.254c-2.897,0-5.254-2.357-5.254-5.254v-309.7   c0-2.897,2.356-5.254,5.254-5.254h471.492c2.897,0,5.254,2.357,5.254,5.254V394.534z" />

		<path d="M144.924,185.674c0-4.142-3.357-7.5-7.5-7.5h-14.547v-26.929h266.246v26.929H172.424c-4.143,0-7.5,3.358-7.5,7.5   s3.357,7.5,7.5,7.5h224.199c4.143,0,7.5-3.358,7.5-7.5v-41.929c0-4.142-3.357-7.5-7.5-7.5H115.377c-4.143,0-7.5,3.358-7.5,7.5   v41.929c0,4.142,3.357,7.5,7.5,7.5h22.047C141.566,193.174,144.924,189.816,144.924,185.674z" />

		<path d="M270.63,276.525c0-4.142-3.357-7.5-7.5-7.5H125.553c-4.143,0-7.5,3.358-7.5,7.5s3.357,7.5,7.5,7.5H263.13   C267.272,284.025,270.63,280.667,270.63,276.525z" />

		<path d="M125.553,229.927c-4.143,0-7.5,3.358-7.5,7.5s3.357,7.5,7.5,7.5H263.13c4.143,0,7.5-3.358,7.5-7.5s-3.357-7.5-7.5-7.5   H125.553z" />

		<path d="M245.1,315.623c0-4.142-3.357-7.5-7.5-7.5h-86.518c-4.143,0-7.5,3.358-7.5,7.5s3.357,7.5,7.5,7.5H237.6   C241.742,323.123,245.1,319.765,245.1,315.623z" />
	</g>
</svg>