<svg xmlns="http://www.w3.org/2000/svg" viewBox="0 0 512.006 512.006">
	<g>
		<path d="M504.565,394.241l-31.661-54.838c-2.072-3.588-6.659-4.816-10.245-2.745c-3.587,2.071-4.816,6.658-2.745,10.245   l31.661,54.838c8.601,14.898,3.478,34.017-11.42,42.618l-2.948,1.702c-14.899,8.602-34.017,3.479-42.618-11.419l-70.061-121.348   c-6.754-11.699-19.341-18.966-32.85-18.966h-157.47c-17.143,0-33.118-9.223-41.689-24.069L20.317,75.919   c-8.335-14.437-3.399-32.867,11.041-41.203l4.742-2.738c14.435-8.336,32.867-3.399,41.203,11.04   c12.429,21.528,37.02,64.119,58.599,101.497h-16.863c-13.948,0-25.296,11.348-25.296,25.296c0,13.948,11.348,25.296,25.296,25.296   h46.072l8.345,14.453c6.754,11.699,19.341,18.966,32.85,18.966h68.235l34.247,34.247c9.885,9.884,25.885,9.887,35.774,0   c9.368-9.369,9.837-24.319,1.407-34.247h17.807c17.144,0,33.118,9.223,41.689,24.069l36.949,63.997   c1.389,2.406,3.91,3.751,6.502,3.751c5.706,0,9.392-6.222,6.488-11.251l-36.949-63.997c-11.243-19.473-32.194-31.569-54.68-31.569   h-32.687l-50.534-50.534c-11.915-11.915-27.756-18.477-44.606-18.477h-21.498c-4.142,0-7.5,3.358-7.5,7.5s3.358,7.5,7.5,7.5h21.498   c12.843,0,24.918,5.001,34,14.083l64.007,64.007c4.014,4.014,4.014,10.546,0,14.561c-4.024,4.023-10.536,4.025-14.562,0   l-64.006-64.006c-5.192-5.193-12.096-8.053-19.44-8.053c-0.113,0-110.24,0-116.909,0c-5.677,0-10.296-4.619-10.296-10.296   s4.619-10.296,10.296-10.296c85.11,0-50.906,0,60.411,0c4.142,0,7.5-3.358,7.5-7.5s-3.358-7.5-7.5-7.5h-26.228l-9.803-16.98   c21.577-0.492,35.232-24.165,24.241-43.2l-40.913-70.863c-7.44-12.887-23.894-17.298-36.782-9.855l-3.24,1.871   c-5.71,3.297-9.756,8.383-11.84,14.146C61.22,11.237,43.525,10.371,28.6,18.988l-4.742,2.738C2.242,34.206-5.155,61.8,7.327,83.419   l112.202,194.339c11.243,19.473,32.195,31.569,54.68,31.569h58.982v47.462c-5.381,0.805-9.64,5.286-10.013,10.861l-5.526,82.597   h-88.43c-4.142,0-7.5,3.358-7.5,7.5v46.759c0,4.142,3.358,7.5,7.5,7.5h35.477c4.142,0,7.5-3.358,7.5-7.5v-3.698h109.865   c4.142,0,7.5-3.358,7.5-7.5s-3.358-7.5-7.5-7.5H172.197v-20.562h167.637v20.562h-22.771c-4.142,0-7.5,3.358-7.5,7.5   s3.358,7.5,7.5,7.5h22.772v3.698c0,4.142,3.358,7.5,7.5,7.5h35.477c4.142,0,7.5-3.358,7.5-7.5v-46.759c0-4.142-3.358-7.5-7.5-7.5   H294.38l-5.526-82.597c-0.374-5.574-4.632-10.055-10.013-10.86v-47.462h52.837c8.167,0,15.776,4.394,19.859,11.466l70.061,121.348   c12.676,21.955,40.948,29.704,63.108,16.91l2.948-1.702C509.716,444.612,517.302,416.302,504.565,394.241z M244.781,198.766   l14.76,14.76h-53.235c-8.167,0-15.776-4.394-19.859-11.466l-4.014-6.953h53.516C239.285,195.107,242.422,196.406,244.781,198.766z    M94.227,18.478c3.384-1.954,5.435-3.474,9.184-3.474c4.079,0,8.11,2.092,10.348,5.968l40.913,70.863   c3.813,6.604,1.554,15.034-5.05,18.847c-6.575,3.798-15.012,1.547-18.827-5.016C124.48,94.73,94.616,43.005,89.861,34.77   C86.573,29.075,88.532,21.766,94.227,18.478z M354.834,465.247h20.477v31.759h-20.477V465.247z M157.197,497.006h-20.477v-31.759   h20.477V497.006z M232.916,446.783l5.026-75.122h36.146l5.026,75.122H232.916z M263.841,356.661H248.19v-47.333h15.651V356.661z" />
	</g>
</svg>