<svg xmlns="http://www.w3.org/2000/svg" viewBox="0 0 512.019 512.019" >
	<g>
		<path d="M496.11,196.848c-13.883-7.371-31.654-2.219-39.884,11.464v-20.42c0-4.142-3.358-7.5-7.5-7.5s-7.5,3.358-7.5,7.5v46.389   l-16.762,29.001c-14.012-4.841-29.9-1.411-40.688,9.377c-15.38,15.379-15.382,40.273,0,55.654c2.928,2.929,7.677,2.929,10.606,0   c2.929-2.929,2.929-7.678,0-10.606c-4.6-4.6-7.133-10.715-7.133-17.221c0-18.863,20.497-30.391,36.553-21.087   c3.583,2.077,8.179,0.854,10.254-2.736c25.025-43.297,19.793-34.242,34.884-60.381c4.112-7.123,13.144-9.897,20.136-6.184   c7.53,3.998,10.126,13.354,5.934,20.616c-65.65,113.709-63.438,109.875-63.535,110.052c-6.53,12.106-9.982,25.776-9.982,39.532   l-0.001,41.698c0,5.127,2.033,10.015,5.579,13.411c0.395,0.378,1.038,1.205,0.915,2.498c-0.142,1.489-1.634,2.7-3.327,2.7h-10.849   c-4.142,0-7.5,3.358-7.5,7.5s3.358,7.5,7.5,7.5h10.849c9.371,0,17.391-7.151,18.259-16.279c0.527-5.539-1.467-10.916-5.473-14.752   c-0.597-0.572-0.954-1.536-0.954-2.577l0.001-41.697c0-11.244,2.813-22.416,8.134-32.318L508,238.213   C516.458,223.565,511.128,204.822,496.11,196.848z" />

		<path d="M378.809,440.603h-85.19c-1.693,0-3.186-1.211-3.327-2.701c-0.123-1.292,0.521-2.119,0.916-2.498   c3.545-3.396,5.579-8.283,5.579-13.41v-42.771c0-13.269-3.334-26.35-9.642-37.828c-6.604-12.017-10.094-25.663-10.094-39.464   V143.515c0-8.223,6.436-15.143,14.347-15.424c8.525-0.283,15.447,6.486,15.447,14.887v70.473c0,4.142,3.358,7.5,7.5,7.5   s7.5-3.358,7.5-7.5v-99.859c0-8.223,6.436-15.143,14.347-15.424c8.562-0.287,15.447,6.522,15.447,14.887v100.396   c0,4.142,3.358,7.5,7.5,7.5s7.5-3.358,7.5-7.5V86.85c0-8.224,6.436-15.143,14.347-15.424c8.574-0.295,15.447,6.547,15.447,14.887   v127.139c0,4.142,3.358,7.5,7.5,7.5s7.5-3.358,7.5-7.5v-99.859c0-8.223,6.436-15.143,14.347-15.424   c8.524-0.286,15.447,6.488,15.447,14.887v39.836c0,4.142,3.358,7.5,7.5,7.5s7.5-3.358,7.5-7.5v-39.836   c0-23.297-25.366-37.345-44.794-25.784v-0.959c0-16.883-13.944-30.474-30.98-29.877c-15.474,0.55-28.813,13.685-28.813,30.682   c-4.794-2.768-10.281-4.148-15.98-3.939c-15.888,0.565-28.813,14.208-28.813,30.414v3.448c-4.794-2.768-10.282-4.148-15.98-3.939   c-15.888,0.565-28.813,14.208-28.813,30.414v158.417c0,16.319,4.132,32.464,11.948,46.688c5.095,9.271,7.788,19.854,7.788,30.604   v42.771c0,1.042-0.356,2.005-0.953,2.576c-4.006,3.836-6.001,9.212-5.474,14.753c0.869,9.128,8.89,16.279,18.26,16.279h85.19   c4.142,0,7.5-3.358,7.5-7.5S382.952,440.603,378.809,440.603z" />

		<path d="M221.155,113.101c-5.693-0.205-11.185,1.172-15.98,3.939v-3.448c0-16.206-12.926-29.849-28.813-30.414   c-5.695-0.203-11.186,1.172-15.98,3.939c0-17.002-13.344-30.132-28.813-30.682c-16.912-0.606-30.98,12.892-30.98,29.877v0.959   c-19.45-11.573-44.794,2.514-44.794,25.784v95.257c-8.23-13.683-25.998-18.834-39.884-11.464   c-14.998,7.964-20.359,26.698-11.89,41.365l63.373,109.766c5.322,9.902,8.134,21.076,8.135,32.319l0.001,41.697   c0,1.042-0.356,2.006-0.954,2.578c-4.005,3.836-6,9.213-5.473,14.75c0.868,9.129,8.889,16.28,18.259,16.28H218.4   c9.37,0,17.391-7.151,18.26-16.28c0.527-5.54-1.468-10.916-5.474-14.751c-0.597-0.572-0.954-1.535-0.954-2.577v-42.771   c0-10.75,2.693-21.333,7.788-30.604c7.816-14.224,11.948-30.368,11.948-46.688v-65.639c0-4.142-3.358-7.5-7.5-7.5   s-7.5,3.358-7.5,7.5v65.639c0,13.801-3.49,27.447-10.094,39.464c-6.308,11.479-9.642,24.56-9.642,37.828v42.771   c0,5.127,2.033,10.015,5.579,13.411c0.395,0.377,1.039,1.205,0.916,2.496c-0.142,1.49-1.634,2.701-3.327,2.701H87.361   c-1.693,0-3.185-1.211-3.327-2.702c-0.123-1.292,0.521-2.118,0.915-2.496c3.545-3.395,5.579-8.283,5.579-13.411l-0.001-41.697   c0-13.756-3.453-27.426-9.982-39.532c-0.101-0.185-7.575-13.126-63.535-110.052c-4.206-7.285-1.575-16.629,5.934-20.616   c6.993-3.711,16.025-0.938,20.137,6.184c18.519,32.075,6.348,11.01,34.884,60.381c2.082,3.6,6.682,4.806,10.254,2.736   c9.523-5.52,21.622-3.931,29.419,3.867c9.518,9.518,9.519,24.922,0,34.441c-4.739,4.738-1.318,12.803,5.303,12.803   c1.919,0,3.839-0.732,5.303-2.197c7.433-7.433,11.527-17.315,11.527-27.827c0-26.913-26.56-46.068-52.215-37.203l-16.762-29.001   V113.055c0-8.411,6.944-15.183,15.447-14.887c7.911,0.281,14.347,7.201,14.347,15.424v99.859c0,4.142,3.358,7.5,7.5,7.5   s7.5-3.358,7.5-7.5V86.313c0-8.408,6.934-15.175,15.447-14.887c7.911,0.281,14.347,7.201,14.347,15.424v126.602   c0,4.142,3.358,7.5,7.5,7.5s7.5-3.358,7.5-7.5V113.055c0-8.342,6.883-15.185,15.447-14.887c7.911,0.281,14.347,7.201,14.347,15.424   v99.859c0,4.142,3.358,7.5,7.5,7.5s7.5-3.358,7.5-7.5v-70.473c0-8.395,6.924-15.181,15.447-14.887   c7.911,0.281,14.347,7.201,14.347,15.424v57.777c0,4.142,3.358,7.5,7.5,7.5s7.5-3.358,7.5-7.5v-57.777   C249.968,127.31,237.042,113.666,221.155,113.101z" />
	</g>
</svg>