<svg xmlns="http://www.w3.org/2000/svg" viewBox="0 0 512 512">
	<g>
		<path d="M133.268,205.357h2.17c7.223,0,13.099-5.875,13.099-13.098v-38.632c0-11.88-9.289-22.75-23.459-22.75v-14.193   c0-5.894-4.308-10.8-9.941-11.737l-4.601-35.99c-0.552-4.329-3.601-7.816-7.582-9.085l-3.415-38.011   c-0.69-7.69-7.034-13.489-14.756-13.489H73.729c-7.721,0-14.064,5.799-14.755,13.489l-3.415,38.011   c-3.979,1.269-7.027,4.754-7.583,9.083l-4.601,35.992c-5.632,0.937-9.94,5.842-9.94,11.736v14.193   c-14.096,0-23.459,10.817-23.459,22.75v38.632c0,7.222,5.876,13.098,13.098,13.098h2.171C9.858,217.777,0,236.785,0,258.053V481.32   c0,12.301,10.008,22.308,22.309,22.308h113.896c12.301,0,22.309-10.007,22.309-22.308V258.053   C158.514,236.785,148.655,217.777,133.268,205.357z M62.408,74.355h33.696l3.89,30.43H58.519L62.408,74.355z M73.899,23.372h10.715   l3.233,35.984H70.666L73.899,23.372z M48.436,119.785h61.643v11.091H48.436V119.785z M24.977,153.627   c0-4.273,3.478-7.75,7.751-7.75h93.059c4.273,0,7.751,3.477,7.751,7.75v36.73h-17.523v-20.08c0-4.142-3.357-7.5-7.5-7.5   s-7.5,3.358-7.5,7.5v20.08H86.757v-20.08c0-4.142-3.357-7.5-7.5-7.5s-7.5,3.358-7.5,7.5v20.08H57.499v-20.08   c0-4.142-3.357-7.5-7.5-7.5s-7.5,3.358-7.5,7.5v20.08H24.977V153.627z M136.205,488.628H22.309c-4.03,0-7.309-3.278-7.309-7.308   v-33.474h17.38c4.143,0,7.5-3.358,7.5-7.5s-3.357-7.5-7.5-7.5H15V277.114h128.514v155.732H67.38c-4.143,0-7.5,3.358-7.5,7.5   s3.357,7.5,7.5,7.5h76.134v33.474C143.514,485.35,140.235,488.628,136.205,488.628z M143.514,262.114H15v-4.061   c0-29.057,23.64-52.696,52.696-52.696h23.121c29.057,0,52.696,23.64,52.696,52.696V262.114z" />

		<path d="M310.011,205.357h2.171c7.222,0,13.098-5.875,13.098-13.098v-38.632c0-11.88-9.289-22.75-23.459-22.75v-14.193   c0-5.895-4.309-10.801-9.941-11.737l-4.601-35.99c-0.552-4.329-3.601-7.816-7.582-9.085l-3.415-38.011   c-0.69-7.69-7.034-13.489-14.756-13.489h-11.053c-7.722,0-14.065,5.799-14.756,13.489l-3.415,38.011   c-3.981,1.269-7.03,4.755-7.582,9.083l-4.601,35.991c-5.633,0.936-9.941,5.842-9.941,11.737v14.193   c-14.096,0-23.459,10.817-23.459,22.75v38.632c0,7.222,5.876,13.098,13.098,13.098h2.171   c-15.387,12.42-25.246,31.428-25.246,52.696V481.32c0,12.301,10.008,22.308,22.309,22.308h113.896   c12.301,0,22.309-10.007,22.309-22.308V342.422c0-4.142-3.357-7.5-7.5-7.5s-7.5,3.358-7.5,7.5v90.424H191.743V277.114h128.514   v30.309c0,4.142,3.357,7.5,7.5,7.5s7.5-3.358,7.5-7.5v-49.369C335.257,236.785,325.398,217.777,310.011,205.357z M239.152,74.355   h33.695l3.89,30.43h-41.475L239.152,74.355z M250.643,23.372h10.715l3.233,35.984h-17.182L250.643,23.372z M225.179,119.785h61.643   v11.091h-61.643V119.785z M201.72,153.627c0-4.273,3.478-7.75,7.751-7.75h93.059c4.273,0,7.751,3.477,7.751,7.75v36.73h-17.523   v-20.08c0-4.142-3.357-7.5-7.5-7.5s-7.5,3.358-7.5,7.5v20.08H263.5v-20.08c0-4.142-3.357-7.5-7.5-7.5s-7.5,3.358-7.5,7.5v20.08   h-14.257v-20.08c0-4.142-3.357-7.5-7.5-7.5s-7.5,3.358-7.5,7.5v20.08H201.72V153.627z M320.257,447.846v33.474   c0,4.03-3.278,7.308-7.309,7.308H199.052c-4.03,0-7.309-3.278-7.309-7.308v-33.474H320.257z M320.257,262.114H191.743v-4.061   c0-29.057,23.64-52.696,52.696-52.696h23.121c29.057,0,52.696,23.64,52.696,52.696V262.114z" />

		<path d="M486.754,205.357h2.171c7.222,0,13.098-5.875,13.098-13.098v-38.632c0-11.88-9.289-22.75-23.459-22.75v-14.193   c0-5.894-4.308-10.8-9.94-11.736l-4.601-35.994c-0.555-4.327-3.604-7.812-7.583-9.081l-3.415-38.011   c-0.69-7.69-7.034-13.489-14.755-13.489h-11.054c-7.722,0-14.065,5.799-14.756,13.489l-3.415,38.011   c-3.981,1.269-7.03,4.755-7.582,9.083l-4.601,35.992c-5.633,0.936-9.941,5.842-9.941,11.736v14.193   c-14.096,0-23.459,10.817-23.459,22.75v38.632c0,7.222,5.876,13.098,13.099,13.098h2.17c-15.387,12.42-25.246,31.428-25.246,52.696   V481.32c0,12.301,10.008,22.308,22.309,22.308h113.896c12.301,0,22.309-10.007,22.309-22.308V258.053   C512,236.785,502.142,217.777,486.754,205.357z M415.896,74.355h33.696l3.89,30.43h-41.476L415.896,74.355z M427.386,23.372h10.715   l3.233,35.984h-17.182L427.386,23.372z M401.922,119.785h61.643v11.091h-61.643V119.785z M378.463,153.627   c0-4.273,3.478-7.75,7.751-7.75h93.059c4.273,0,7.751,3.477,7.751,7.75v36.73h-17.522v-20.08c0-4.142-3.357-7.5-7.5-7.5   s-7.5,3.358-7.5,7.5v20.08h-14.258v-20.08c0-4.142-3.357-7.5-7.5-7.5s-7.5,3.358-7.5,7.5v20.08h-14.257v-20.08   c0-4.142-3.357-7.5-7.5-7.5s-7.5,3.358-7.5,7.5v20.08h-17.523V153.627z M421.183,205.357h23.121   c29.057,0,52.696,23.64,52.696,52.696v4.061h-54.835c-4.143,0-7.5,3.358-7.5,7.5s3.357,7.5,7.5,7.5H497v155.732H368.486V277.114   h38.679c4.143,0,7.5-3.358,7.5-7.5s-3.357-7.5-7.5-7.5h-38.679v-4.061C368.486,228.997,392.126,205.357,421.183,205.357z    M489.691,488.628H375.795c-4.03,0-7.309-3.278-7.309-7.308v-33.474H497v33.474C497,485.35,493.722,488.628,489.691,488.628z" />

		<path d="M121.769,367.526c0-13.412-10.333-31.651-16.492-41.33c-16.72-26.274-23.72-26.274-26.02-26.274s-9.3,0-26.021,26.274   c-6.159,9.678-16.491,27.917-16.491,41.33c0,23.441,19.07,42.512,42.512,42.512S121.769,390.967,121.769,367.526z M51.745,367.526   c0-13.521,19.141-42.668,27.512-51.119c8.371,8.451,27.512,37.598,27.512,51.119c0,15.17-12.342,27.512-27.512,27.512   S51.745,382.696,51.745,367.526z" />

		<path d="M256,299.922c-2.3,0-9.3,0-26.021,26.274c-6.159,9.678-16.491,27.917-16.491,41.33c0,23.441,19.07,42.512,42.512,42.512   s42.512-19.071,42.512-42.512c0-13.412-10.332-31.651-16.491-41.33C265.3,299.922,258.3,299.922,256,299.922z M283.512,367.526   c0,15.17-12.342,27.512-27.512,27.512s-27.512-12.342-27.512-27.512c0-13.521,19.141-42.668,27.512-51.119   C264.371,324.857,283.512,354.004,283.512,367.526z" />

		<path d="M390.231,367.526c0,23.441,19.07,42.512,42.512,42.512s42.512-19.071,42.512-42.512c0-13.412-10.332-31.651-16.491-41.33 c-16.721-26.274-23.721-26.274-26.021-26.274s-9.3,0-26.02,26.274C400.564,335.875,390.231,354.114,390.231,367.526z M432.743,316.407c8.371,8.451,27.512,37.598,27.512,51.119c0,15.17-12.342,27.512-27.512,27.512s-27.512-12.342-27.512-27.512 C405.231,354.005,424.372,324.858,432.743,316.407z" />
	</g>
</svg>