<svg xmlns="http://www.w3.org/2000/svg" viewBox="0 0 512 512">
	<g>
		<path d="M504.5,215.44c4.143,0,7.5-3.358,7.5-7.5V45c0-4.142-3.357-7.5-7.5-7.5H7.5C3.357,37.5,0,40.858,0,45v162.94   c0,4.142,3.357,7.5,7.5,7.5h7.511v208.695H7.5c-4.143,0-7.5,3.358-7.5,7.5V467c0,4.142,3.357,7.5,7.5,7.5h497   c4.143,0,7.5-3.358,7.5-7.5v-35.365c0-4.142-3.357-7.5-7.5-7.5h-7.511V215.44H504.5z M15,439.135h39.996V459.5H15V439.135z    M69.996,257.229h107.339v62.224h-10v-44.724c0-4.142-3.357-7.5-7.5-7.5H87.496c-4.143,0-7.5,3.358-7.5,7.5v109.129   c0,4.142,3.357,7.5,7.5,7.5s7.5-3.358,7.5-7.5V282.229h57.339V434.5H94.996v-15.641c0-4.142-3.357-7.5-7.5-7.5s-7.5,3.358-7.5,7.5   V442c0,4.142,3.357,7.5,7.5,7.5h72.339c4.143,0,7.5-3.358,7.5-7.5v-44.724h10V459.5H69.996V257.229z M167.335,334.453h9.318v47.823   h-9.318V334.453z M497,459.5H192.335v-20.365H497V459.5z M299.72,287.135c4.143,0,7.5-3.358,7.5-7.5v-22.406h59.885v166.906H307.22   v-109.5c0-4.142-3.357-7.5-7.5-7.5s-7.5,3.358-7.5,7.5v109.5h-59.885V257.229h59.885v22.406   C292.22,283.777,295.577,287.135,299.72,287.135z M441.989,257.229v166.906h-59.885V257.229H441.989z M456.989,424.135V249.729   c0-4.142-3.357-7.5-7.5-7.5H224.835c-4.143,0-7.5,3.358-7.5,7.5v174.406h-25V249.729c0-4.142-3.357-7.5-7.5-7.5H62.496   c-4.143,0-7.5,3.358-7.5,7.5v174.406H30.011V215.441h451.979v208.694H456.989z M15,52.5h482v147.94H15V52.5z" />

		<path d="M474.5,89.203c-7.832,0-14.203-6.371-14.203-14.203c0-4.142-3.357-7.5-7.5-7.5H134.306c-4.143,0-7.5,3.358-7.5,7.5   s3.357,7.5,7.5,7.5h311.968c2.682,10.086,10.64,18.044,20.727,20.727v46.487c-10.087,2.682-18.045,10.641-20.728,20.727H65.728   C63.045,160.354,55.087,152.396,45,149.714v-46.487c10.087-2.682,18.045-10.64,20.727-20.727h33.579c4.143,0,7.5-3.358,7.5-7.5   s-3.357-7.5-7.5-7.5H59.203c-4.143,0-7.5,3.358-7.5,7.5c0,7.832-6.371,14.203-14.203,14.203c-4.143,0-7.5,3.358-7.5,7.5v59.535   c0,4.142,3.357,7.5,7.5,7.5c7.832,0,14.203,6.372,14.203,14.203c0,4.142,3.357,7.5,7.5,7.5h393.594c4.143,0,7.5-3.358,7.5-7.5   c0-7.832,6.371-14.203,14.203-14.203c4.143,0,7.5-3.358,7.5-7.5V96.703C482,92.561,478.643,89.203,474.5,89.203z" />

		<path d="M141.828,96.197c-78.852,0,1.823,0-36.074,0c-4.143,0-7.5,3.358-7.5,7.5s3.357,7.5,7.5,7.5h10.537v39.721   c0,4.142,3.357,7.5,7.5,7.5s7.5-3.358,7.5-7.5v-39.721h10.537c4.143,0,7.5-3.358,7.5-7.5S145.971,96.197,141.828,96.197z" />

		<path d="M221.301,158.418c4.143,0,7.5-3.358,7.5-7.5v-39.721h10.537c4.143,0,7.5-3.358,7.5-7.5s-3.357-7.5-7.5-7.5   c-9.128,0-25.682,0-36.074,0c-4.143,0-7.5,3.358-7.5,7.5s3.357,7.5,7.5,7.5h10.537v39.721   C213.801,155.061,217.158,158.418,221.301,158.418z" />

		<path d="M277.729,158.418c4.143,0,7.5-3.358,7.5-7.5v-39.721h10.537c4.143,0,7.5-3.358,7.5-7.5s-3.357-7.5-7.5-7.5   c-9.128,0-25.682,0-36.074,0c-4.143,0-7.5,3.358-7.5,7.5s3.357,7.5,7.5,7.5h10.537v39.721   C270.229,155.061,273.586,158.418,277.729,158.418z" />

		<path d="M193.513,124.282l-2.167-12.317c-1.608-9.145-9.516-15.783-18.801-15.783s-17.192,6.638-18.801,15.783   c-19.746,112.26,12.876-73.201-6.623,37.654c-0.718,4.08,2.008,7.968,6.088,8.686c4.074,0.712,7.968-2.008,8.686-6.087   l3.161-17.969h14.979l3.161,17.969c0.641,3.64,3.805,6.202,7.378,6.202c4.692-0.005,8.2-4.227,7.396-8.801l-4.042-22.983   C193.915,125.813,193.771,125.021,193.513,124.282z M167.695,119.249l0.824-4.685c0.345-1.959,2.038-3.381,4.027-3.381   s3.683,1.422,4.027,3.381l0.824,4.685H167.695z" />

		<path d="M355.972,132.896v-11.162c0-14.081-11.456-25.537-25.537-25.537s-25.537,11.456-25.537,25.537v11.162   c0,14.081,11.456,25.537,25.537,25.537S355.972,146.977,355.972,132.896z M319.897,132.896v-11.162   c0-5.81,4.727-10.537,10.537-10.537s10.537,4.727,10.537,10.537v11.162c0,5.81-4.727,10.537-10.537,10.537   S319.897,138.706,319.897,132.896z" />
		
		<path d="M413.746,132.896v-11.162c0-14.081-11.456-25.537-25.537-25.537s-25.537,11.456-25.537,25.537v11.162   c0,14.081,11.456,25.537,25.537,25.537S413.746,146.977,413.746,132.896z M377.672,132.896v-11.162   c0-5.81,4.727-10.537,10.537-10.537s10.537,4.727,10.537,10.537v11.162c0,5.81-4.727,10.537-10.537,10.537   S377.672,138.706,377.672,132.896z" />
	</g>
</svg>