<svg xmlns="http://www.w3.org/2000/svg" viewBox="0 0 744.29 307.1" width="140" fill="white">
	<title>tatuluis</title>

	<g data-name="logo">
		<path d="M384.67,271.69V231.93c.86-26.85,12.7-30.43,15.86-24.86-.64-8.07-9.55-13.93-15.86-11.68V134.92c-10.84-.7-21.14-13.09-21.14-13.09s-1.41,9.06-14.84,22.17c-12.74,12.43-9.56,25-4.63,25.87-2.13-1.3-2.79-9.91,1.66-13.83,4-3.54,9.73-2.44,9.95,8.55V275.52a75,75,0,0,0-15.22,7.63l-18.86-15.39,9.08-4.7V231.93c.86-26.85,12.7-30.43,15.86-24.86-.64-8.07-9.55-13.93-15.86-11.68V134.92c-10.84-.7-21.14-13.09-21.14-13.09s-1.41,9.06-14.84,22.17c-12.74,12.43-9.56,25-4.63,25.87-2.13-1.3-2.79-9.91,1.66-13.83,4-3.54,9.73-2.44,9.95,8.55v96.27l-12.5,14,48.44,31.58a304.12,304.12,0,0,1,23.71-19.31l24.2,19.31,22.83-21.25C402.55,288.79,391.35,278.66,384.67,271.69Z" />

		<path d="M730.67,259.58v-40l-42.81-34a33.69,33.69,0,0,1-4,22,81.77,81.77,0,0,0-5.2,10.84V157.71l-16.76-12a72.62,72.62,0,0,0,14.82-5.29c5.22,11.14,16,21.39,34.15,33.92,23.57,16.23,19,28.1,17,29.33,10.3-3.06,8.9-27.94-17.28-52.11C693,135.25,694.38,122.1,694.38,122.1s-24.26,20.25-53.59,21.47c8.56,3.67,8.88,31.78,8.88,31.78v63.59l28.8,14.56,23.2-47.84v57.15l9.9,5.13L693.05,283c-34.17-28.41-61.88-14.81-61.88-14.81,36.92-2.36,64.41,38.39,64.41,38.39l48.71-31.76Z" />

		<path d="M624.67,269.87V231.66c.86-26.86,12.7-30.43,15.86-24.87-.64-8.07-9.55-13.92-15.86-11.68V134.64c-10.84-.69-21.14-13.09-21.14-13.09s-1.41,9.07-14.84,22.17c-12.74,12.44-9.56,25-4.63,25.88-2.13-1.31-2.79-9.91,1.66-13.83,4-3.54,9.73-2.45,9.95,8.55v99.47l-10.3,11.56,39.8,31.75,23-21.37C643.11,288.77,631.16,277,624.67,269.87Z" />

		<path d="M571.67,271.69V231.93c.86-26.85,12.7-30.43,15.86-24.86-.64-8.07-9.55-13.93-15.86-11.68V134.92c-10.84-.7-21.14-13.09-21.14-13.09s-1.41,9.06-14.84,22.17c-12.74,12.43-9.56,25-4.63,25.87-2.13-1.3-2.79-9.91,1.66-13.83,4-3.54,9.73-2.44,9.95,8.55V275.52a75,75,0,0,0-15.22,7.63l-18.86-15.39,9.08-4.7V231.93c.86-26.85,12.7-30.43,15.86-24.86-.64-8.07-9.55-13.93-15.86-11.68V134.92c-10.84-.7-21.14-13.09-21.14-13.09s-1.41,9.06-14.84,22.17c-12.74,12.43-9.56,25-4.63,25.87-2.13-1.3-2.79-9.91,1.66-13.83,4-3.54,9.73-2.44,9.95,8.55v96.27l-12.5,14,48.44,31.58a304.12,304.12,0,0,1,23.71-19.31l24.2,19.31,22.83-21.25C589.55,288.79,578.35,278.66,571.67,271.69Z" />

		<path d="M509,103.77C442.53,98.18,445,63.48,445,63.48s-6.5,36.65,63.95,47.31c78.24,10.66,171.65-44,202.5-.52C681,54.9,566.52,108.61,509,103.77Z" />

		<path d="M605.91,47.36C600.05,63.24,586.67,76,554.44,87.91c-62.91,22.23-94.36-6.76-94.36-6.76s30.44,37.27,111.34,8c30.9-11.19,43.32-29.47,43.32-44.89,0-14.91-11.69-21.31-20.53-15.6C607.08,25.39,608.48,40.37,605.91,47.36Z" />

		<path d="M559.9,73.87c33.74-33.46-6.35-84.37-33.54-66.8-15.42,10-9.44,25-4.68,24.87-2.42-1.74-2.47-11.48,11.18-15.25s32.83,12.23,30.76,32.23c-3.29,31.89-49.56,53.55-90.63,34.66C485.64,91.2,528.09,105.42,559.9,73.87Z" />

		<path d="M239.41,206.73c-.63-8-9.46-13.83-15.74-11.64V175.35s.33-28.11,8.88-31.78C203.23,142.35,179,122.1,179,122.1s1.38,13.15-16.23,29.42c-26.19,24.17-27.58,49-17.29,52.11-2-1.23-6.54-13.1,17-29.33,18.18-12.53,28.93-22.78,34.14-33.92a72.62,72.62,0,0,0,14.82,5.29l-16.76,12v60.75a80.53,80.53,0,0,0-5.2-10.84,33.72,33.72,0,0,1-4-22l-42.82,34v40.14L129.12,275l48.49,31.61S211,275.84,235,268.37a109.45,109.45,0,0,0-11.28.78V230.49C224.78,204.67,236.31,201.26,239.41,206.73Zm-44.74,68.93a73.68,73.68,0,0,0-14.22,7.27l-18.51-15.1,9.73-5.05V206s6.41,12.5,11.66,23.28c6.36,13.06,5.67,28.35-2.14,26.12,1.83,3.27,10.07,4.49,13.48-5.47Z" />

		<path d="M276.44,269.58v-39c1.08-25.83,12.59-29.25,15.7-23.79-.64-8-9.45-13.8-15.7-11.61V119.7c35.4-1.28,72.39-10.67,92.65-40.59,9.7-14.32,25.81-54.73-13-75.51-22.35-10-59.32,1.12-68.59,28.75-4.9,14.6.44,26.27,9.35,30.83,14.55,7.45,31.7,2.6,37.41-11.09-6.49,10.14-22.86,7.41-30.21.47-6.28-7-8.32-18.66-.27-30.6C314.53,6,338.43,3.25,353.85,9.66,367,15.11,389,38.91,364.76,74.09,349,97,316.53,102,276.44,100.25c0-18.1,0-29.86,0-29.8,0-27.54,6.38-66,22.84-61-4.77-5.2-19-5.89-34,12.64-16.11,19.05-26.64,33-32.91,27.63-3.35-2.86-1.89-10,1.91-10.2-2.7-1.14-10.82,1.56-9.53,12C226.22,63.05,240,68,247.67,64.2V98.12c-41-4-87-11.79-130.23-13.72,0-8.8,0-14,0-14,0-27.54,6.38-66,22.84-61-4.77-5.2-19-5.89-33.95,12.64C90.23,41.18,79.7,55.1,73.43,49.76c-3.35-2.86-1.89-10,1.91-10.2-2.7-1.14-10.82,1.56-9.53,12C67.22,63.05,81,68,88.67,64.2V84.32c-94.45,6.06-103.28,90.9-73.44,106.51,30.07,15.72,60.28-10.78,56.64-39.1-2.78-21.65-26.32-18.49-29-14.59,6.84-3.47,21.48,3.81,15.68,31.17-5.58,26.3-33.9,26.19-44.21,16.41C1.73,172.77,2.5,133.15,37.84,109.51c11.68-7.82,30.28-10.64,50.83-10.76V263.17L78.28,274.83l39.49,31.51,22.78-21.2c-5,3-16.63-8.5-23.11-15.56v-39c1.08-25.83,12.59-29.25,15.7-23.79-.64-8-9.45-13.8-15.7-11.61V100c31.28,2.73,61.92,9,76.19,11.64,10.18,1.86,30.41,5.85,54,7.47v144l-10.39,11.66,39.49,31.51,22.78-21.2C294.6,288.13,282.92,276.64,276.44,269.58ZM106.67,279.2l-7-6.83V59.4l7-11.2Zm159,0-7-6.83V59.4l7-11.2Z" />

		<path d="M459.1,220c5.89-.7,22.19,3.77,5.81,26.6-9.27,12.92-16.44,22-20.6,30.14l-6.85-5v-40c.81-26.77,12.6-30.34,15.74-24.8-.63-8-9.49-13.83-15.75-11.6,0-59.5,0-125,0-124.84,0-27.56,6.39-66,22.86-61-4.77-5.2-19-5.89-34,12.65C410.23,41.12,399.7,55,393.42,49.7c-3.36-2.86-1.89-10,1.91-10.2-2.7-1.14-10.82,1.56-9.53,12C387.21,63,401,68,408.67,64.16V263.23l-10.4,11.67,47.49,31.53s3.66-15.6,23.74-40C497.58,232.27,473.14,213.55,459.1,220ZM426.67,279.2l-7-6.83V59.4l7-11.2Z" />
	</g>
</svg>